<mxfile host="app.diagrams.net" modified="2021-06-07T20:55:06.154Z" agent="5.0 (X11)" etag="tk1lkOHK15P4NOBfv0Ej" version="14.7.6" type="github" pages="2">
  <diagram id="WzmJHtWN-mCFyKdljRuv" name="Página-1">
    <mxGraphModel dx="1104" dy="692" grid="1" gridSize="10" guides="1" tooltips="1" connect="1" arrows="1" fold="1" page="1" pageScale="1" pageWidth="1100" pageHeight="850" background="none" math="0" shadow="0">
      <root>
        <mxCell id="0" />
        <mxCell id="1" parent="0" />
        <mxCell id="_0pIE6DTACgjI4htQ6qK-1" value="" style="aspect=fixed;perimeter=ellipsePerimeter;html=1;align=center;shadow=0;dashed=0;spacingTop=3;image;image=img/lib/active_directory/databases.svg;" parent="1" vertex="1">
          <mxGeometry x="550" y="291.07" width="122.45" height="120" as="geometry" />
        </mxCell>
        <mxCell id="_0pIE6DTACgjI4htQ6qK-2" value="" style="aspect=fixed;perimeter=ellipsePerimeter;html=1;align=center;shadow=0;dashed=0;spacingTop=3;image;image=img/lib/active_directory/folder.svg;" parent="1" vertex="1">
          <mxGeometry x="880" y="300" width="87.6" height="120" as="geometry" />
        </mxCell>
        <mxCell id="_0pIE6DTACgjI4htQ6qK-3" value="" style="aspect=fixed;perimeter=ellipsePerimeter;html=1;align=center;shadow=0;dashed=0;spacingTop=3;image;image=img/lib/active_directory/mainframe_host.svg;" parent="1" vertex="1">
          <mxGeometry x="510" y="80" width="96.2" height="133.61" as="geometry" />
        </mxCell>
        <mxCell id="_0pIE6DTACgjI4htQ6qK-4" value="" style="aspect=fixed;perimeter=ellipsePerimeter;html=1;align=center;shadow=0;dashed=0;spacingTop=3;image;image=img/lib/active_directory/my_sites.svg;imageBorder=#000000;" parent="1" vertex="1">
          <mxGeometry x="520" y="510" width="122.22" height="110" as="geometry" />
        </mxCell>
        <mxCell id="_0pIE6DTACgjI4htQ6qK-5" value="" style="aspect=fixed;perimeter=ellipsePerimeter;html=1;align=center;shadow=0;dashed=0;spacingTop=3;image;image=img/lib/active_directory/home_page.svg;" parent="1" vertex="1">
          <mxGeometry x="155.46" y="497.1" width="125.46" height="112.9" as="geometry" />
        </mxCell>
        <mxCell id="_0pIE6DTACgjI4htQ6qK-6" value="" style="aspect=fixed;perimeter=ellipsePerimeter;html=1;align=center;shadow=0;dashed=0;spacingTop=3;image;image=img/lib/active_directory/router.svg;" parent="1" vertex="1">
          <mxGeometry x="800" y="95.71000000000001" width="134.46" height="102.19" as="geometry" />
        </mxCell>
        <mxCell id="_0pIE6DTACgjI4htQ6qK-8" value="" style="aspect=fixed;perimeter=ellipsePerimeter;html=1;align=center;shadow=0;dashed=0;spacingTop=3;image;image=img/lib/active_directory/server_farm.svg;" parent="1" vertex="1">
          <mxGeometry x="155.46" y="95.71000000000001" width="130" height="130" as="geometry" />
        </mxCell>
        <mxCell id="9RDQQ38iNQ1NcraKHZJI-1" value="" style="aspect=fixed;perimeter=ellipsePerimeter;html=1;align=center;shadow=0;dashed=0;spacingTop=3;image;image=img/lib/active_directory/users.svg;" vertex="1" parent="1">
          <mxGeometry x="180" y="301.07" width="90.99" height="137.86" as="geometry" />
        </mxCell>
        <mxCell id="9RDQQ38iNQ1NcraKHZJI-2" value="" style="aspect=fixed;perimeter=ellipsePerimeter;html=1;align=center;shadow=0;dashed=0;spacingTop=3;image;image=img/lib/active_directory/switch.svg;" vertex="1" parent="1">
          <mxGeometry x="827.23" y="525" width="80" height="80" as="geometry" />
        </mxCell>
        <mxCell id="9RDQQ38iNQ1NcraKHZJI-3" value="" style="aspect=fixed;perimeter=ellipsePerimeter;html=1;align=center;shadow=0;dashed=0;spacingTop=3;image;image=img/lib/active_directory/wiring_hub.svg;" vertex="1" parent="1">
          <mxGeometry x="330" y="120" width="88.23" height="60" as="geometry" />
        </mxCell>
        <mxCell id="9RDQQ38iNQ1NcraKHZJI-4" value="" style="fontColor=#0066CC;verticalAlign=top;verticalLabelPosition=bottom;labelPosition=center;align=center;html=1;outlineConnect=0;fillColor=#CCCCCC;strokeColor=#6881B3;gradientColor=none;gradientDirection=north;strokeWidth=2;shape=mxgraph.networks.storage;" vertex="1" parent="1">
          <mxGeometry x="460" y="301.07" width="100" height="100" as="geometry" />
        </mxCell>
      </root>
    </mxGraphModel>
  </diagram>
  <diagram id="hIs9eU6o_Z1y5vRcYG_D" name="Página-2">
    <mxGraphModel dx="1289" dy="692" grid="1" gridSize="10" guides="1" tooltips="1" connect="1" arrows="1" fold="1" page="1" pageScale="1" pageWidth="1100" pageHeight="850" math="0" shadow="0">
      <root>
        <mxCell id="qXyqvQaNa49Ka1ISiUO4-0" />
        <mxCell id="qXyqvQaNa49Ka1ISiUO4-1" parent="qXyqvQaNa49Ka1ISiUO4-0" />
      </root>
    </mxGraphModel>
  </diagram>
</mxfile>
